# xmcd
#
# Track frame offsets: 
#        150
#        11671
#        23970
#        34000
#        41849
#        55944
#        67711
#        78383
#        90615
#        102983
#        113782
#        126154
#        137286
#        149259
#        160436
#        177384
#        187582
#        195080
#        204428
#        213644
#
# Disc length: 3007 seconds
#
# Revision: 0
# Processed by: cddbd v1.5.2PL0 Copyright (c) Steve Scherf et al.
# Submitted via: ExactAudioCopyFreeDBPlugin 1.0
#
DISCID=0a0bbd14
DTITLE=Various Artist - country
DYEAR=1900
DGENRE=Country
TTITLE0=Country - Me and Bobby Mc Gee
TTITLE1=Country - Take This Job and Shove It
TTITLE2=Country - I've Loved and Lost Again
TTITLE3=Country - Blue Blue Day
TTITLE4=Country - Conversation With a Gun
TTITLE5=Country - Standing In The Promises
TTITLE6=Country - I'm so Lonesome I Could Cry
TTITLE7=Country - Green Green Grass of Home
TTITLE8=Country - It's Four In The Morning
TTITLE9=Country - It Was Not God that Made The Honky Donk Angels
TTITLE10=Country - High Noon
TTITLE11=Country - There Goes My Everything
TTITLE12=Country - There Goes My Heart Again
TTITLE13=Country - Raining In My Heart
TTITLE14=Country - Blue Bayou
TTITLE15=Country - Six Days On The Road
TTITLE16=Country - I Am a Lonesome Fugitive
TTITLE17=Country - One Step Beyond
TTITLE18=Country - Suzie Q
TTITLE19=Country - Don't Think Twice It's Alright
EXTD=
EXTT0=
EXTT1=
EXTT2=
EXTT3=
EXTT4=
EXTT5=
EXTT6=
EXTT7=
EXTT8=
EXTT9=
EXTT10=
EXTT11=
EXTT12=
EXTT13=
EXTT14=
EXTT15=
EXTT16=
EXTT17=
EXTT18=
EXTT19=
PLAYORDER=
